#!OML:ASF X:\für Bonn\!DataBase\2005_08_10_Bjorn_Final\c3d\bjorn.ASF
:FULLY-SPECIFIED
:DEGREES
367
root -1.07486 18.2541 3.48406 -543.856 34.7471 -538.74
lowerback -1.92292 5.89068 3.10807
upperback 7.62808 8.51139 -2.92494
thorax 10.1116 4.75187 -3.84718
lowerneck 1.69926 -0.585041 10.8596
upperneck 18.2813 0.639149 -2.87781
head 5.26789 1.38073 -2.63718
rclavicle -2.34566e-014 1.59028e-015
rhumerus 74.81 15.0843 -70.882
rradius 53.8426
rwrist 25.8262
rhand -33.5362 14.2828
rfingers 7.12502
rthumb -6.73183 -15.5902
lclavicle -2.34566e-014 1.59028e-015
lhumerus 46.7618 -19.9585 69.3708
lradius 81.8187
lwrist 31.9373
lhand -57.032 -5.94738
lfingers 7.12502
lthumb -29.322 21.7605
rfemur 368.103 10.9337 -351.635
rtibia 39.957
rfoot -13.0635 -0.227305
rtoes -41.7814
lfemur -18.5347 0.925255 -15.6289
ltibia 49.2205
lfoot -19.5945 4.95762
ltoes -21.1136
368
root -1.06183 18.2798 3.51449 -543.82 34.7506 -538.741
lowerback -2.0993 5.90031 3.02533
upperback 7.67544 8.52883 -2.90185
thorax 10.2542 4.75358 -3.75237
lowerneck 1.49966 -0.80546 10.8403
upperneck 19.0177 0.36397 -2.67086
head 5.51339 1.31191 -2.58112
rclavicle -8.42847e-014 4.6118e-014
rhumerus 73.2496 15.0699 -70.5468
rradius 55.5243
rwrist 25.1377
rhand -34.1969 14.8622
rfingers 7.12502
rthumb -7.36967 -14.9895
lclavicle -8.42847e-014 4.6118e-014
lhumerus 45.6825 -20.7526 68.155
lradius 82.45
lwrist 28.7664
lhand -58.049 -6.39628
lfingers 7.12502
lthumb -30.2926 21.1376
rfemur 367.941 10.8755 -351.617
rtibia 39.9495
rfoot -12.8628 -0.0179508
rtoes -41.5879
lfemur -18.4288 0.937683 -15.5349
ltibia 48.8256
lfoot -19.3734 4.95843
ltoes -21.1903
369
root -1.0482 18.3098 3.54658 -543.764 34.7432 -538.702
lowerback -2.26356 5.90494 2.98324
upperback 7.71902 8.53844 -2.89022
thorax 10.3935 4.75532 -3.69431
lowerneck 1.27377 -1.0293 10.8804
upperneck 19.809 0.0864238 -2.48301
head 5.783 1.25148 -2.54183
rclavicle -2.06736e-014 3.18055e-015
rhumerus 71.471 15.101 -70.2618
rradius 57.3063
rwrist 24.4297
rhand -34.8611 15.5575
rfingers 7.12502
rthumb -8.0107 -14.2707
lclavicle -2.06736e-014 3.18055e-015
lhumerus 44.5156 -21.6252 67.0112
lradius 82.9435
lwrist 25.3187
lhand -58.9699 -6.90489
lfingers 7.12502
lthumb -31.1707 20.4639
rfemur 367.768 10.7912 -351.566
rtibia 39.9284
rfoot -12.5566 0.190035
rtoes -41.23
lfemur -18.2758 0.89403 -15.4041
ltibia 48.3381
lfoot -19.0875 4.99393
ltoes -21.3152
370
root -1.0344 18.3446 3.58028 -543.708 34.7376 -538.663
lowerback -2.41994 5.91207 2.93375
upperback 7.76812 8.55072 -2.86123
thorax 10.5305 4.75673 -3.61397
lowerneck 1.04058 -1.25544 10.8806
upperneck 20.6302 -0.188622 -2.31466
head 6.0655 1.19306 -2.50295
rclavicle -1.09332e-014 2.8625e-014
rhumerus 69.4856 15.2076 -69.9372
rradius 59.1668
rwrist 23.6208
rhand -35.519 16.3045
rfingers 7.12502
rthumb -8.64561 -13.4985
lclavicle -1.09332e-014 2.8625e-014
lhumerus 43.248 -22.571 66.0358
lradius 83.2654
lwrist 21.7427
lhand -59.7779 -7.63865
lfingers 7.12502
lthumb -31.9403 19.5792
rfemur 367.591 10.7069 -351.509
rtibia 39.884
rfoot -12.1405 0.390942
rtoes -40.8759
lfemur -18.0825 0.839414 -15.2739
ltibia 47.7721
lfoot -18.7771 5.048
ltoes -21.5496
371
root -1.02018 18.3843 3.61615 -543.636 34.7249 -538.66
lowerback -2.59818 5.92909 2.85438
upperback 7.79668 8.57854 -2.85495
thorax 10.6584 4.76317 -3.53821
lowerneck 0.866939 -1.50397 10.9068
upperneck 21.4498 -0.481508 -2.15103
head 6.33899 1.13326 -2.47099
rclavicle 4.03533e-014 -2.14687e-014
rhumerus 67.2503 15.3495 -69.6132
rradius 61.1786
rwrist 22.7992
rhand -35.9993 16.8787
rfingers 7.12502
rthumb -9.10912 -12.9046
lclavicle 4.03533e-014 -2.14687e-014
lhumerus 41.8791 -23.5993 65.1363
lradius 83.3887
lwrist 17.934
lhand -60.5605 -8.8957
lfingers 7.12502
lthumb -32.6853 18.1704
rfemur 367.374 10.5938 -351.493
rtibia 39.8108
rfoot -11.6113 0.597093
rtoes -40.5882
lfemur -17.8722 0.730181 -15.1774
ltibia 47.0917
lfoot -18.4149 5.11527
ltoes -21.5746
372
root -1.00528 18.4299 3.65436 -543.537 34.7007 -538.637
lowerback -2.76433 5.93131 2.76522
upperback 7.80135 8.57973 -2.82403
thorax 10.7431 4.75199 -3.43793
lowerneck 0.875852 -1.74461 10.912
upperneck 22.1891 -0.729453 -2.00835
head 6.56048 1.09413 -2.43917
rclavicle 7.87187e-014 -7.15625e-015
rhumerus 64.8239 15.6088 -69.226
rradius 63.3255
rwrist 21.8832
rhand -36.3181 17.376
rfingers 7.12502
rthumb -9.41675 -12.3937
lclavicle 7.87187e-014 -7.15625e-015
lhumerus 40.2754 -24.653 64.3756
lradius 83.3859
lwrist 14.0787
lhand -61.2732 -9.63774
lfingers 7.12502
lthumb -33.3631 17.2851
rfemur 367.124 10.4472 -351.468
rtibia 39.7336
rfoot -11.0141 0.835114
rtoes -40.3754
lfemur -17.6433 0.594687 -15.059
ltibia 46.3244
lfoot -17.9846 5.19904
ltoes -21.6578
373
root -0.989137 18.4872 3.69391 -543.458 34.6798 -538.652
lowerback -2.89885 5.94174 2.63146
upperback 7.78287 8.59481 -2.80311
thorax 10.7784 4.7435 -3.3274
lowerneck 1.05915 -2.01091 10.9665
upperneck 22.8579 -0.976887 -1.90004
head 6.73062 1.0596 -2.425
rclavicle -3.65764e-014 2.54444e-014
rhumerus 62.1909 15.9508 -68.8507
rradius 65.4506
rwrist 21.2954
rhand -36.89 17.6144
rfingers 7.12502
rthumb -9.96849 -12.1295
lclavicle -3.65764e-014 2.54444e-014
lhumerus 38.5225 -25.7785 63.705
lradius 83.2226
lwrist 10.1779
lhand -62.0332 -10.8282
lfingers 7.12502
lthumb -34.0852 15.9366
rfemur 366.868 10.2709 -351.48
rtibia 39.6419
rfoot -10.3775 1.09931
rtoes -40.2959
lfemur -17.3419 0.441155 -14.9778
ltibia 45.4469
lfoot -17.5265 5.34005
ltoes -21.8411
374
root -0.974031 18.5385 3.73823 -543.413 34.6815 -538.67
lowerback -3.01484 5.95119 2.49964
upperback 7.79111 8.61082 -2.7645
thorax 10.8301 4.73628 -3.19928
lowerneck 1.24648 -2.25252 10.9686
upperneck 23.5106 -1.18906 -1.77931
head 6.89892 1.039 -2.39585
rclavicle -3.51849e-014 8.74653e-015
rhumerus 59.4298 16.377 -68.452
rradius 67.5499
rwrist 21.0092
rhand -37.6467 17.6877
rfingers 7.12502
rthumb -10.6985 -12.0199
lclavicle -3.51849e-014 8.74653e-015
lhumerus 36.6377 -26.9139 63.1834
lradius 82.9582
lwrist 6.35329
lhand -62.8168 -12.4488
lfingers 7.12502
lthumb -34.8291 14.147
rfemur 366.601 10.0888 -351.52
rtibia 39.5958
rfoot -9.73161 1.4513
rtoes -40.1267
lfemur -17.0096 0.285044 -14.8909
ltibia 44.5513
lfoot -17.0369 5.48024
ltoes -21.967
